<svg width="260" height="173" viewBox="0 0 260 173" fill="none" xmlns="http://www.w3.org/2000/svg">
<path d="M99.7061 55.6378C99.4721 52.2614 100.934 48.0593 102.737 45.2256C108.32 36.5342 118.422 31.4667 128.09 28.991C138.692 26.276 163.709 27.8865 166.789 41.2753C168.01 47.197 160.518 50.3347 156.324 52.6929C155.119 53.3703 153.655 53.8349 152.461 54.5504C152.697 54.8086 153.079 55.1105 153.325 55.3259C156.596 58.1854 159.788 50.9739 163.346 50.7084C165.14 50.5743 164.249 53.5585 165.365 54.2387C167.788 55.7156 170.169 52.1076 172.15 51.584C172.467 51.4998 172.787 51.8181 173.012 51.9969C173.144 54.5298 171.677 57.0582 170.315 59.1621C168.923 60.8557 166.299 64.2176 163.671 63.3235C161.464 62.7851 160.002 62.2279 157.772 62.8207C157.357 62.997 154.872 65.4862 153.947 66.1884C156.594 66.2354 162.822 66.2605 164.75 68.2388C164.896 68.3893 165.035 68.5455 165.168 68.7068C165.498 69.576 165.582 70.0538 165.582 70.9954C165.647 71.0821 165.713 71.1688 165.778 71.2555C170.973 72.1431 175.897 74.3655 180.392 77.0616C180.829 77.3238 181.625 77.8551 182.078 78.0133C183.102 77.3417 184.079 76.8736 185.254 76.5374C185.901 77.3562 187.229 81.0036 187.72 82.1874C188.115 83.3046 188.486 84.1997 188.961 85.2876C189.233 85.8378 189.877 86.8871 189.718 87.4121C188.082 90.2793 186.584 92.3147 184.312 94.7455C183.83 95.2613 181.592 97.2299 181.4 97.5494C184.071 99.8209 180.883 102.679 178.914 103.938C179.585 104.343 180.22 104.789 180.72 105.403C181.442 106.334 181.784 107.047 182.002 108.226C182.012 108.726 182.04 109.297 182.006 109.791C180.62 118.269 171.454 120.633 164.396 122.418C166.505 124.059 168.52 125.429 169.409 128.141C169.825 129.302 170.047 130.61 169.968 131.843C169.865 132.62 169.731 133.515 169.566 134.285C168.972 136.899 167.188 139.678 165.317 141.559C159.542 147.422 150.972 149.281 143.112 149.253C131.286 149.21 119.044 146.506 112.2 136.011C111.783 135.372 110.892 133.49 110.462 133.121C110.071 132.148 109.747 131.174 109.409 130.182C108.201 126.805 108.236 122.917 110.014 119.747C110.159 119.539 110.234 119.048 110.292 118.78C108.137 119.504 106.771 119.755 104.492 119.829C100.2 119.636 98.2871 116.203 100.204 112.378C100.885 111.13 101.398 110.539 102.356 109.535L103.541 108.478C100.909 107.627 98.9194 106.326 97.0903 104.281C96.1078 102.66 96.0055 101.394 96.1073 99.5508C96.0067 99.2574 95.5128 98.9792 95.6423 98.0543C95.7138 97.5438 95.6969 97.5216 96.0771 97.1802C96.6823 97.0735 96.4309 97.0587 97.0363 97.2691C97.4667 96.7198 97.6084 96.5626 98.1323 96.1039C97.3188 94.8946 96.599 93.1602 96.2421 91.7489C95.9473 91.1256 94.0678 90.9484 93.2048 90.1449C91.6957 87.3859 100.693 80.0246 102.783 78.1892C102.015 77.8786 101.048 77.3808 100.285 77.015C99.2221 76.4031 98.8048 76.0982 97.8759 75.3451C97.4594 74.8124 97.2621 74.1539 97.2855 73.4901C97.3832 70.7201 101.004 70.4984 102.815 70.4697L103.265 70.3393C103.616 69.9495 104.049 69.0909 104.143 68.5744L103.182 68.5027C103.108 66.8007 103.094 64.685 102.626 63.0852L102.931 62.8438L103.032 62.54C100.575 61.0591 99.904 58.2892 99.7061 55.6378Z" fill="url(#paint0_linear_222_3404)"/>
<path d="M99.7083 55.6378C99.4743 52.2614 100.936 48.0593 102.739 45.2256C108.322 36.5342 118.424 31.4667 128.092 28.991C138.695 26.276 163.711 27.8865 166.791 41.2753C168.012 47.197 160.52 50.3347 156.326 52.6929C155.121 53.3703 153.657 53.8349 152.463 54.5504C152.699 54.8086 153.081 55.1105 153.328 55.3259C156.598 58.1854 159.79 50.9739 163.348 50.7084C165.142 50.5743 164.252 53.5585 165.367 54.2387C167.79 55.7156 170.171 52.1076 172.152 51.584C172.47 51.4998 172.789 51.8181 173.015 51.9969C173.146 54.5298 171.679 57.0582 170.317 59.1621C168.925 60.8557 166.301 64.2176 163.673 63.3235C161.466 62.7851 160.005 62.2279 157.774 62.8207C157.359 62.997 154.874 65.4862 153.949 66.1884C156.596 66.2354 162.824 66.2605 164.752 68.2388C164.898 68.3893 165.037 68.5455 165.171 68.7068C165.5 69.576 165.584 70.0538 165.584 70.9954C165.374 73.4968 162.937 74.2013 160.86 74.9425C155.843 76.7322 150.559 77.6103 145.262 78.0601C144.372 78.9475 142.753 80.3675 142.137 81.3138C141.353 81.6295 140.659 81.8987 139.855 82.1722C138.719 81.3415 135.55 79.3297 134.781 78.5839C133.743 78.5826 132.706 78.5396 131.673 78.4552C128.8 78.2375 126.177 78.0551 126.533 74.4789C124.21 73.2847 121.185 71.742 118.691 71.0378C117.245 71.3095 116.086 71.9516 114.564 72.2028C112.083 71.4931 110.404 71.1397 107.872 70.8371C107.96 69.8667 107.817 68.9416 108.086 68.1496C108.452 67.8387 108.509 67.9342 109.071 67.9067L109.088 67.8335C107.672 67.7119 105.672 68.3991 104.145 68.5744L103.184 68.5027C103.11 66.8007 103.096 64.685 102.628 63.0852L102.933 62.8438L103.034 62.54C100.577 61.0591 99.9062 58.2892 99.7083 55.6378Z" fill="#B46D14"/>
<path d="M99.7083 55.6378C99.4743 52.2614 100.936 48.0593 102.739 45.2256C108.322 36.5342 118.424 31.4667 128.092 28.991C138.695 26.276 163.711 27.8865 166.791 41.2753C161.622 38.2422 156.29 39.754 150.809 40.9894C146.973 41.8789 143.173 42.9375 139.351 43.8819C130.306 46.1174 120.803 47.6809 112.363 51.7946C109.214 53.3294 101.176 58.226 103.034 62.54C100.577 61.0591 99.9062 58.2892 99.7083 55.6378Z" fill="url(#paint1_linear_222_3404)"/>
<path d="M107.743 44.9209C108.983 45.4898 108.419 46.6667 107.508 47.3013C106.993 47.0628 106.946 47.0006 106.762 46.5773C106.771 45.8267 107.235 45.4476 107.743 44.9209Z" fill="#824311"/>
<path d="M147.73 34.3755C148.687 34.6897 149.518 35.4505 149.125 36.517C147.438 36.5224 147.292 35.7905 147.73 34.3755Z" fill="#824311"/>
<path d="M114.578 42.1455C115.434 42.6942 115.374 43.9408 114.438 44.5642C114.099 44.4122 114.067 44.381 113.777 44.1427C113.404 43.1794 113.895 42.7897 114.578 42.1455Z" fill="#824311"/>
<path d="M118.093 37.4399C118.868 37.7369 118.962 38.3415 118.755 39.1406C118.663 39.4927 118.328 39.5713 118.019 39.7185L117.523 39.4398C116.982 38.5757 117.509 38.138 118.093 37.4399Z" fill="#824311"/>
<path d="M139.001 32.2559C140.171 32.2474 140.711 33.2126 140.059 34.1677C138.747 34.0229 138.16 33.454 139.001 32.2559Z" fill="#824311"/>
<path d="M122.958 33.3896C123.891 33.5949 124.48 34.5838 123.598 35.4026C121.974 35.2912 122.202 34.4079 122.958 33.3896Z" fill="#824311"/>
<path d="M133.403 28.9502C134.378 29.0862 135.212 29.8822 134.639 30.8825C133.129 30.9956 132.903 30.1722 133.403 28.9502Z" fill="#824311"/>
<path d="M131.898 34.791C132.402 35.0333 132.687 35.8386 132.623 36.3744C132.578 36.751 132.371 36.799 132.083 36.9909C131.72 36.8662 131.598 36.8076 131.263 36.62C130.75 35.802 131.316 35.3982 131.898 34.791Z" fill="#824311"/>
<path d="M125.201 40.1943C126.169 40.6175 126.695 41.3796 126.11 42.3776C124.44 42.1924 124.695 41.4509 125.201 40.1943Z" fill="#824311"/>
<path d="M103.529 49.7314C103.68 49.8113 103.651 49.7828 103.754 49.8743C103.976 50.0698 104.132 50.3045 104.124 50.6183C104.11 51.2007 103.641 51.6232 103.242 51.9825C102.067 51.1622 102.76 50.5135 103.529 49.7314Z" fill="#824311"/>
<path d="M144.87 28.4414C145.669 28.8146 146.027 29.772 145.625 30.5819C144.255 30.3783 144.05 29.5254 144.87 28.4414Z" fill="#824311"/>
<path d="M109.97 38.334L110.323 38.4311C111.014 39.1302 110.539 39.6758 110.066 40.3611C109.756 40.3453 109.712 40.3027 109.446 40.159C109.008 39.3475 109.357 38.9008 109.97 38.334Z" fill="#824311"/>
<path d="M137.926 66.8578C141.382 65.3156 142.237 62.7303 146.867 64.4368C147.325 64.7279 149.465 65.9766 149.516 66.387L149.709 66.4536C149.819 66.4611 149.784 66.4538 149.896 66.4837C151.778 66.9855 152.243 66.9672 153.948 66.1883C156.595 66.2353 162.823 66.2604 164.751 68.2387C164.897 68.3892 165.036 68.5454 165.17 68.7067C165.5 69.5759 165.583 70.0537 165.583 70.9952C165.373 73.4967 162.936 74.2012 160.859 74.9424C155.842 76.7321 150.558 77.6102 145.261 78.06C144.371 78.9474 142.752 80.3674 142.136 81.3137C141.352 81.6294 140.658 81.8986 139.854 82.1721C138.719 81.3414 135.549 79.3296 134.78 78.5838C133.742 78.5825 132.705 78.5395 131.672 78.4551C128.799 78.2373 126.176 78.055 126.532 74.4788C124.209 73.2846 121.184 71.7419 118.69 71.0377C117.244 71.3094 116.085 71.9515 114.563 72.2027C112.082 71.493 110.404 71.1396 107.871 70.837C107.959 69.8666 107.816 68.9415 108.085 68.1495C108.451 67.8386 108.508 67.9341 109.07 67.9066C109.11 67.9091 109.15 67.9108 109.189 67.9139C112.199 68.1486 113.509 72.472 118.016 68.7215C118.172 68.5915 118.357 68.4564 118.485 68.2979C119.903 67.0695 121.396 64.9735 123.275 64.3896C125.853 63.5885 128.694 64.4346 130.995 65.5769C132.552 66.6619 134.03 67.9328 136.053 67.5754C136.565 67.4849 137.526 67.1834 137.926 66.8578Z" fill="#C5462E"/>
<path d="M137.926 66.8578C141.382 65.3156 142.237 62.7303 146.867 64.4368C147.325 64.7279 149.465 65.9766 149.516 66.387C144.346 66.538 130.831 69.4572 127.36 73.1767C127.01 73.5589 126.73 73.9997 126.532 74.4788C124.209 73.2846 121.184 71.7419 118.69 71.0377C117.244 71.3094 116.085 71.9515 114.563 72.2027C112.082 71.493 110.404 71.1396 107.871 70.837C107.959 69.8666 107.816 68.9415 108.085 68.1495C108.451 67.8386 108.508 67.9341 109.07 67.9066C109.11 67.9091 109.15 67.9108 109.189 67.9139C112.199 68.1486 113.509 72.472 118.016 68.7215C118.172 68.5915 118.357 68.4564 118.485 68.2979C119.903 67.0695 121.396 64.9735 123.275 64.3896C125.853 63.5885 128.694 64.4346 130.995 65.5769C132.552 66.6619 134.03 67.9328 136.053 67.5754C136.565 67.4849 137.526 67.1834 137.926 66.8578Z" fill="white"/>
<path d="M153.946 66.1885C156.593 66.2355 162.821 66.2606 164.749 68.2389C164.895 68.3894 165.035 68.5456 165.168 68.707C163.573 69.2409 163.375 69.941 161.957 70.6372C161.425 70.8986 160.801 70.5613 160.767 69.8523C160.979 69.5289 161.111 69.3915 161.166 69.0203C159.854 66.354 152.995 68.8481 152.584 70.0947C152.837 72.5458 157.995 70.7048 159.06 71.5823L159.047 71.8289C158.182 72.9806 155.328 73.4135 153.947 73.3499C153.633 73.3694 153.526 72.4508 153.402 72.4277C151.346 72.0414 150.275 72.7725 149.996 70.3804C150.248 69.6832 152.666 68.8914 152.794 67.7187C152.136 67.1707 150.956 67.6276 149.903 66.638L149.707 66.4538C149.817 66.4613 149.782 66.454 149.894 66.4839C151.776 66.9857 152.241 66.9674 153.946 66.1885Z" fill="#D7494F"/>
<path d="M134.777 78.5838C138.625 78.5564 141.4 78.3732 145.259 78.0601C144.369 78.9475 142.75 80.3675 142.133 81.3138C141.35 81.6294 140.656 81.8987 139.852 82.1721C138.716 81.3414 135.547 79.3297 134.777 78.5838Z" fill="white"/>
<path d="M136.198 70.3936C138.693 70.4624 145.194 71.3012 139.065 73.8642C138.272 74.1956 137.143 74.458 136.296 74.7003C134.894 75.1629 131.59 76.2874 131.245 73.7594C131.166 73.1815 131.532 72.4232 131.932 71.9861C133.127 70.679 134.544 70.5125 136.198 70.3936Z" fill="#B13030"/>
<path d="M147.258 73.3342C147.958 73.5955 149.773 73.2001 150.426 73.9008L150.339 74.1721C150.106 74.405 149.747 74.7209 149.426 74.8188C148.094 75.2257 142.255 76.2132 141.805 74.5385C142.27 72.9324 145.194 72.7642 146.562 73.1433L147.258 73.3342Z" fill="#B13030"/>
<path d="M140.238 69.8972C140.437 69.2316 140.739 68.8359 140.689 68.1886L140.814 68.104C140.723 69.969 140.595 71.3523 143.143 70.7013C143.459 70.2039 142.607 70.0028 142.514 69.0881C142.657 68.3575 143.205 68.0393 143.899 68.0994C143.271 68.3252 142.96 68.4421 142.788 69.1501C142.895 70.1076 144.162 70.7107 145.022 70.8364C145.441 71.1459 145.356 70.9911 145.482 71.4249C144.994 72.523 143.314 72.7763 142.667 71.6428L142.668 71.3596C142.432 71.0321 142.125 71.0566 141.641 70.8745L141.495 70.8188C140.872 70.5851 140.717 70.3738 140.238 69.8972Z" fill="#D7494F"/>
<path d="M140.238 69.8972C140.437 69.2316 140.739 68.8359 140.689 68.1886L140.814 68.104C140.723 69.969 140.595 71.3523 143.143 70.7013C143.459 70.2039 142.607 70.0028 142.514 69.0881C142.657 68.3575 143.205 68.0393 143.899 68.0994C143.271 68.3252 142.96 68.4421 142.788 69.1501C142.895 70.1076 144.162 70.7107 145.022 70.8364C144.345 70.8911 143.084 71.0591 142.667 71.6428L142.668 71.3596C142.432 71.0321 142.125 71.0566 141.641 70.8745L141.495 70.8188C140.872 70.5851 140.717 70.3738 140.238 69.8972Z" fill="#B13030"/>
<path d="M147.432 69.772C149.227 69.9117 149.668 71.2327 147.888 71.7361C147.139 71.8775 146.735 72.0168 146.225 71.3641C145.953 70.4024 146.703 70.1067 147.432 69.772Z" fill="#D7494F"/>
<path d="M146.561 73.143C146.351 72.6111 146.33 72.7922 146.502 72.3703C147.125 71.8518 147.806 71.9805 148.473 72.3404L148.641 72.5664C148.482 73.1788 147.934 73.2312 147.398 73.3131L147.257 73.3339L146.561 73.143Z" fill="#D7494F"/>
<path d="M152.462 54.5505C152.698 54.8087 153.08 55.1106 153.327 55.326C156.597 58.1855 159.789 50.974 163.347 50.7085C165.141 50.5744 164.25 53.5586 165.366 54.2388C167.789 55.7157 170.17 52.1077 172.151 51.5841C172.469 51.4999 172.788 51.8182 173.014 51.997C173.145 54.5299 171.678 57.0583 170.316 59.1622C168.924 60.8558 166.3 64.2177 163.672 63.3236C161.465 62.7852 160.004 62.228 157.773 62.8208C157.358 62.9971 154.873 65.4863 153.948 66.1885C152.243 66.9674 151.778 66.9857 149.896 66.4839C149.784 66.454 149.819 66.4613 149.709 66.4538L149.516 66.3873C149.465 65.9768 147.325 64.7282 146.867 64.4371C142.237 62.7305 141.382 65.3158 137.926 66.858C137.526 67.1836 136.565 67.4851 136.053 67.5756C134.03 67.933 132.552 66.6621 130.995 65.5771L131.04 65.3804C130.762 64.8712 129.927 64.1114 129.486 63.6727C128.841 62.932 128.517 62.4257 127.988 61.6146C127.225 60.5865 126.663 59.1529 125.249 58.822C123.802 59.3595 125.186 62.9329 123.264 63.4876C122.795 63.4176 122.973 63.4937 122.593 63.1751C122.29 62.5927 122.453 61.5796 122.502 60.9007C123.329 60.005 124.206 59.1689 124.719 58.0714C125.954 58.0377 126.945 58.2706 128.216 58.0916C130.776 57.1839 128.691 53.9606 131.905 55.4121C132.376 55.6248 132.904 56.1179 133.303 56.4524C137.658 59.7344 136.833 55.5668 139.45 54.2271L139.578 54.1625C140.527 54.1396 141.197 54.7817 141.908 55.4028C142.28 55.8465 142.439 55.9006 142.94 56.1507C143.683 56.4792 144.179 56.566 144.963 56.7354C148.078 55.1077 146.955 51.8563 151.222 53.2028C151.724 53.5615 152.147 54.0204 152.462 54.5505Z" fill="#B6BF3F"/>
<path d="M152.462 54.5505C152.698 54.8087 153.08 55.1106 153.327 55.326C156.597 58.1855 159.789 50.974 163.347 50.7085C165.141 50.5744 164.25 53.5586 165.366 54.2388C167.789 55.7157 170.17 52.1077 172.151 51.5841C172.469 51.4999 172.788 51.8182 173.014 51.997C173.145 54.5299 171.678 57.0583 170.316 59.1622C168.924 60.8558 166.3 64.2177 163.672 63.3236L163.853 63.2396C164.003 62.8297 163.176 62.3274 162.992 61.3505C162.995 60.8901 162.953 60.447 163.13 60.0341C164.315 60.2031 164.979 60.4753 166.01 59.6513C166.78 59.0368 168.704 57.2193 168.223 56.1233C167.066 55.5658 165.044 57.1631 163.521 56.9608C162.892 56.4726 163.144 53.9882 161.379 54.3612C158.813 54.9037 157.435 57.8807 154.533 58.3436C151.846 58.7721 150.595 56.2441 148.442 56.4618C147.548 56.5522 146.679 58.5494 144.849 58.4814C143.219 58.4209 141.933 57.4767 140.571 57.5713C139.063 57.6761 138.507 60.0093 136.322 59.3456C135.484 59.0911 134.921 58.7324 134.138 58.3644C133.248 57.9462 132.48 57.5765 131.832 58.5272C130.428 60.5874 130.448 61.0172 127.988 61.6146C127.225 60.5865 126.663 59.1529 125.249 58.822C123.802 59.3595 125.186 62.9329 123.264 63.4876C122.795 63.4176 122.973 63.4937 122.593 63.1751C122.29 62.5927 122.453 61.5796 122.502 60.9007C123.329 60.005 124.206 59.1689 124.719 58.0714C125.954 58.0377 126.945 58.2706 128.216 58.0916C130.776 57.1839 128.691 53.9606 131.905 55.4121C132.376 55.6248 132.904 56.1179 133.303 56.4524C137.658 59.7344 136.833 55.5668 139.45 54.2271L139.578 54.1625C140.527 54.1396 141.197 54.7817 141.908 55.4028C142.28 55.8465 142.439 55.9006 142.94 56.1507C143.683 56.4792 144.179 56.566 144.963 56.7354C148.078 55.1077 146.955 51.8563 151.222 53.2028C151.724 53.5615 152.147 54.0204 152.462 54.5505Z" fill="#C3C94F"/>
<path d="M144.109 60.7298C144.647 60.5169 144.943 60.6655 145.366 60.6281C147.797 60.4137 148.722 63.3828 150.348 63.8806C154.257 65.077 156.256 59.1264 159.446 57.7019C159.574 57.6451 159.591 57.7033 159.795 57.7838C158.959 59.5084 158.331 60.8652 157.637 62.6629L157.773 62.8208C157.358 62.9971 154.873 65.4863 153.948 66.1885C152.243 66.9674 151.778 66.9857 149.896 66.4839C149.784 66.454 149.819 66.4613 149.709 66.4538L149.516 66.3872C149.465 65.9768 147.325 64.7281 146.866 64.437L146.903 64.369C146.87 63.9735 144.541 61.2837 144.109 60.7298Z" fill="#C3C94F"/>
<path d="M138.694 64.2532C139.224 62.8548 138.409 58.0611 140.661 57.9503C141.969 57.8861 143.228 59.8055 144.11 60.7297C144.541 61.2837 146.87 63.9735 146.903 64.369L146.867 64.437C142.238 62.7305 141.383 65.3157 137.926 66.858C137.909 66.6402 138.611 65.6665 138.694 64.2532Z" fill="#91962E"/>
<path d="M129.484 63.6729C130.616 63.1116 133.02 62.103 134.297 62.4693C136.149 63.0004 135.527 65.727 137.469 64.8121C137.873 64.6217 138.283 64.3002 138.693 64.2534C138.61 65.6667 137.907 66.6405 137.925 66.8582C137.524 67.1838 136.564 67.4853 136.052 67.5758C134.029 67.9332 132.551 66.6623 130.994 65.5773L131.039 65.3806C130.761 64.8714 129.926 64.1116 129.484 63.6729Z" fill="#C3C94F"/>
<path d="M159.794 57.7836C160.362 56.9018 161.274 55.4843 162.504 55.8247C163.596 56.9041 162.611 59.8066 162.991 61.3503C163.175 62.3272 164.002 62.8295 163.852 63.2394L163.671 63.3234C161.464 62.785 160.003 62.2278 157.772 62.8206L157.637 62.6628C158.33 60.865 158.958 59.5082 159.794 57.7836Z" fill="#91962E"/>
<path d="M106.972 60.3151C106.966 59.0214 106.404 57.0988 108.69 57.6948C110.413 58.1437 112.077 59.1792 113.89 59.2994C116.3 59.4593 115.321 56.2266 116.576 55.1299C117.864 54.0824 120.336 56.2149 121.767 56.2228C125.146 56.6171 124.516 52.8254 126.464 51.3869C129.79 49.1597 131.481 55.241 134.709 52.1816C136.6 50.3895 138.612 45.5105 141.518 45.4723C143.328 46.1142 142.151 48.5655 144.374 48.9595C146.635 49.3602 148.98 44.1149 150.585 44.4867C153.208 45.0944 150.587 50.5415 150.748 52.1875C150.805 52.7589 150.855 52.6927 151.22 53.2026C146.953 51.856 148.076 55.1075 144.961 56.7352C144.177 56.5657 143.681 56.479 142.938 56.1505C142.437 55.9003 142.278 55.8462 141.906 55.4025C141.195 54.7814 140.526 54.1393 139.576 54.1622L139.448 54.2269C136.831 55.5666 137.656 59.7342 133.301 56.4522C132.902 56.1176 132.375 55.6246 131.903 55.4119C128.689 53.9603 130.774 57.1837 128.214 58.0913C126.943 58.2703 125.952 58.0374 124.717 58.0711C124.204 59.1686 123.327 60.0047 122.501 60.9005C122.451 61.5794 122.288 62.5924 122.591 63.1748C122.971 63.4934 122.793 63.4173 123.262 63.4874C125.184 62.9326 123.8 59.3593 125.247 58.8218C126.661 59.1526 127.224 60.5863 127.986 61.6143C128.515 62.4255 128.84 62.9318 129.484 63.6724C129.925 64.1112 130.761 64.871 131.038 65.3802L130.993 65.5769C128.692 64.4345 125.851 63.5884 123.273 64.3896C121.394 64.9735 119.901 67.0694 118.483 68.2979C118.355 68.4563 118.17 68.5915 118.014 68.7215C113.507 72.4719 112.197 68.1486 109.187 67.9138C109.148 67.9107 109.108 67.9091 109.069 67.9066L109.085 67.8334C107.67 67.7117 105.669 68.399 104.142 68.5742L103.181 68.5025C103.107 66.8006 103.094 64.6849 102.625 63.085L102.93 62.8436L103.031 62.5398C104.955 62.0713 105.933 62.283 106.972 60.3151Z" fill="#B6BF3F"/>
<path d="M133.301 56.4523C133.594 55.9152 134.654 54.8824 135.076 54.3809C136.271 52.9599 139.469 47.7738 141.345 50.829C142.725 53.0761 146.65 47.9235 147.946 50.0656C148.139 51.9192 144.605 55.3694 142.938 56.1506C142.437 55.9004 142.278 55.8464 141.906 55.4027C141.195 54.7816 140.525 54.1395 139.576 54.1623L139.448 54.227C136.831 55.5667 137.656 59.7343 133.301 56.4523Z" fill="#ACB434"/>
<path d="M139.578 54.1623L139.146 54.0947C138.587 53.0448 140.052 51.2414 141.239 51.3038C142.147 51.8234 142.243 54.6698 141.908 55.4026C141.198 54.7815 140.528 54.1394 139.578 54.1623Z" fill="#91962E"/>
<path d="M117.954 58.7867C120.248 58.2149 121.422 58.8092 122.5 60.9006C122.45 61.5795 122.287 62.5925 122.591 63.1749C122.971 63.4935 122.792 63.4174 123.261 63.4875C125.183 62.9327 123.8 59.3594 125.246 58.8219C126.66 59.1527 127.223 60.5864 127.985 61.6144C128.514 62.4255 128.839 62.9319 129.483 63.6725C129.925 64.1113 130.76 64.871 131.037 65.3803L130.992 65.577C128.691 64.4346 125.851 63.5885 123.273 64.3897C121.393 64.9736 119.9 67.0695 118.482 68.298C118.249 67.8563 118.431 66.4588 118.437 65.7884C118.443 65.2965 118.465 64.387 118.384 63.9254C118.088 62.2511 117.104 60.8658 117.512 59.1731C117.715 59.0458 117.784 58.9547 117.954 58.7867Z" fill="#91962E"/>
<path d="M118.437 65.7887C117.778 65.1063 117.186 67.0172 115.879 66.9696C115.067 66.373 114.958 64.5128 113.636 64.7497C112.498 64.9537 108.626 66.8694 107.789 65.5405C107.899 64.0367 110.176 63.3894 110.372 61.8155C110.453 61.1593 109.974 61.0863 109.905 60.4534C110.414 59.4692 112.185 60.6116 113.341 60.7081C115.487 60.8873 115.868 59.9986 117.512 59.1733C117.103 60.8661 118.088 62.2514 118.383 63.9257C118.465 64.3873 118.442 65.2968 118.437 65.7887Z" fill="#ACB434"/>
<path d="M117.957 58.787C120.223 55.4153 120.821 58.6285 123.756 57.7487C124.627 57.4874 126.907 52.3654 128.873 55.7083C129.25 56.3485 128.586 57.4674 128.217 58.0916C126.946 58.2707 125.955 58.0378 124.72 58.0715C124.207 59.1689 123.33 60.005 122.503 60.9008C121.426 58.8094 120.251 58.2151 117.957 58.787Z" fill="#ACB434"/>
<path d="M102.93 62.8438C104.714 62.8604 105.651 64.5688 106.975 65.6477C107.877 66.3824 108.609 66.9051 109.581 67.5553L109.607 67.7181C109.352 67.8125 109.354 67.8252 109.085 67.8335C107.67 67.7119 105.669 68.3991 104.142 68.5744L103.181 68.5027C103.107 66.8007 103.094 64.685 102.625 63.0852L102.93 62.8438Z" fill="#91962E"/>
<path d="M175.472 97.513C177.187 97.1356 179.906 96.2991 181.399 97.5494C184.071 99.8209 180.882 102.679 178.914 103.938C179.584 104.343 180.219 104.789 180.719 105.403C181.441 106.334 181.783 107.047 182.001 108.226C182.011 108.726 182.039 109.297 182.005 109.791C180.619 118.268 171.453 120.633 164.395 122.418C166.504 124.059 168.519 125.429 169.408 128.141C169.824 129.302 170.046 130.61 169.967 131.843C169.864 132.62 169.73 133.515 169.565 134.285C168.971 136.899 167.187 139.677 165.316 141.559C159.541 147.422 150.972 149.281 143.112 149.253C131.285 149.21 119.044 146.506 112.199 136.011C111.782 135.372 110.891 133.49 110.461 133.121C110.07 132.148 109.747 131.174 109.408 130.182C108.201 126.805 108.235 122.917 110.013 119.747C110.158 119.539 110.233 119.048 110.291 118.78C112.936 117.851 114.096 117.173 116.541 115.707C115.146 117.748 113.468 120.105 113.965 122.745C114.18 123.903 114.863 124.922 115.853 125.562C119.998 128.297 125.759 124.698 129.576 122.865C132.299 121.677 135.055 119.759 137.769 118.422L138.459 118.026L151.404 110.913L151.934 110.601C154.526 109.09 158.996 106.559 161.706 105.459C162.306 105.767 163.003 106.248 163.627 106.131C164.039 105.818 164.416 104.264 164.812 103.631C165.137 102.759 165.69 101.638 166.093 100.766C168.644 99.4607 172.716 98.2346 175.472 97.513Z" fill="#E28F26"/>
<path d="M175.474 97.513C177.189 97.1356 179.908 96.2991 181.401 97.5494C184.072 99.8209 180.884 102.679 178.915 103.938C179.586 104.343 180.22 104.789 180.721 105.403C181.443 106.334 181.784 107.047 182.003 108.226C182.013 108.726 182.04 109.297 182.006 109.791C180.62 118.268 171.455 120.633 164.397 122.418C159.997 124.06 157.039 126.113 152.915 128.173C149.809 129.724 145.097 129.888 141.702 130.382C137.182 131.041 127.734 130.826 129.05 123.798L129.577 122.865C132.3 121.677 135.057 119.759 137.771 118.422L138.461 118.026L151.405 110.913L151.935 110.601C154.528 109.09 158.997 106.559 161.708 105.459C162.308 105.767 163.005 106.248 163.628 106.131C164.04 105.818 164.417 104.264 164.813 103.631C165.139 102.759 165.691 101.638 166.095 100.766C168.646 99.4607 172.718 98.2346 175.474 97.513Z" fill="#73380B"/>
<path d="M175.474 97.513C177.189 97.1356 179.908 96.2991 181.401 97.5494C184.072 99.8209 180.884 102.679 178.915 103.938C177.822 104.297 176.27 105.234 174.789 105.746C169.274 107.653 162.494 109.677 157.37 112.537L156.233 113.067C154.94 113.741 153.154 114.721 151.952 115.554L151.737 115.697C148.08 118.277 146.176 120.282 143.696 124.085C142.826 125.739 142.177 127.35 141.426 129.047C141.213 129.528 140.36 129.526 139.905 129.389C138.629 128.279 140.281 125.5 140.873 124.256C139.217 124.129 137.202 124.359 135.641 124.868C131.98 126.064 131.933 126.069 129.051 123.798L129.578 122.865C132.3 121.677 135.057 119.759 137.771 118.422L138.461 118.026L151.405 110.913L151.935 110.601C154.528 109.09 158.998 106.559 161.708 105.459C162.308 105.767 163.005 106.248 163.628 106.131C164.041 105.818 164.417 104.264 164.813 103.631C165.139 102.759 165.692 101.638 166.095 100.766C168.646 99.4607 172.718 98.2346 175.474 97.513Z" fill="#6A5750"/>
<path d="M166.047 103.208C167.012 102.642 169.162 101.895 170.227 101.517C169.96 101.878 169.837 101.903 169.866 102.27C170.267 102.443 170.583 102.404 171.024 102.406C172.136 102.329 173.272 102.31 174.388 102.277C174.78 102.346 175.499 102.447 175.845 102.579C175.484 103.277 173.235 103.88 172.439 104.139C161.722 107.63 147.972 112.146 141.963 122.417L141.636 122.95L140.873 124.256C139.217 124.128 137.202 124.358 135.641 124.868C131.98 126.064 131.933 126.069 129.051 123.798L129.578 122.864C132.3 121.677 135.057 119.759 137.771 118.422L138.461 118.025L151.405 110.913L151.935 110.6C154.528 109.09 158.998 106.558 161.708 105.458C162.308 105.767 163.005 106.248 163.628 106.131C164.041 105.818 164.417 104.264 164.813 103.631L166.047 103.208Z" fill="#824311"/>
<path d="M166.047 103.208C167.011 102.642 169.162 101.895 170.227 101.517C169.959 101.878 169.837 101.903 169.866 102.27C170.267 102.443 170.583 102.404 171.024 102.406C170.294 102.54 166.476 103.28 166.047 103.208Z" fill="#C5462E"/>
<path d="M141.633 122.95C140.827 122.692 140.299 122.121 140.682 121.277C141.444 120.951 141.71 121.842 141.96 122.417L141.633 122.95Z" fill="#73380B"/>
<path d="M151.936 110.601C152.401 110.741 152.837 110.827 153.175 111.176L153.242 111.437C152.609 111.91 151.929 111.319 151.406 110.914L151.936 110.601Z" fill="#73380B"/>
<path d="M138.46 118.026C138.892 118.258 138.97 118.287 139.197 118.715L139.21 119.038L139.001 119.243C138.303 119.233 138.175 119 137.77 118.422L138.46 118.026Z" fill="#73380B"/>
<path d="M142.232 116.91C143.226 116.973 143.668 117.554 143.326 118.504C142.556 118.197 141.86 117.793 142.232 116.91Z" fill="#73380B"/>
<path d="M170.228 101.517C172.115 100.496 176.959 99.1521 179.123 98.9067C178.146 99.617 175.13 101.628 174.389 102.277C173.274 102.31 172.137 102.329 171.025 102.406C170.585 102.404 170.269 102.443 169.867 102.27C169.838 101.903 169.961 101.879 170.228 101.517Z" fill="#DC6135"/>
<path d="M179.121 98.9067C179.588 98.946 179.742 98.9225 180.141 99.1793C180.989 100.666 176.613 102.85 175.844 102.579C175.498 102.447 174.779 102.346 174.387 102.277C175.128 101.628 178.144 99.617 179.121 98.9067Z" fill="white"/>
<path d="M157.369 112.537C162.493 109.677 169.274 107.654 174.788 105.747C176.269 105.235 177.821 104.297 178.914 103.938C179.585 104.344 180.22 104.789 180.72 105.403C179.64 106.089 179.92 107.479 178.943 108.461C177.29 110.123 175.182 110.299 173.358 111.805C172.017 112.912 171.642 114.931 170.367 115.742C167.598 117.505 163.725 117.66 160.566 118.422C158.581 118.9 157.019 119.586 155.158 120.287C152.448 121.308 151.183 123.439 148.728 124.414C147.685 124.829 146.065 124.755 145.008 124.487C144.495 124.357 144.193 124.277 143.695 124.085C146.176 120.282 148.079 118.277 151.737 115.697L151.951 115.554C153.153 114.721 154.939 113.741 156.232 113.067L157.369 112.537Z" fill="#824311"/>
<path d="M157.368 112.537C157.805 112.903 158.284 113.217 158.473 113.74L158.449 114.031C157.717 114.471 156.714 113.599 156.23 113.067L157.368 112.537Z" fill="#73380B"/>
<path d="M151.952 115.554C152.617 115.796 153.233 116.02 153.049 116.853C152.705 117.138 152.877 117.071 152.413 117.076C151.782 116.745 151.796 116.338 151.738 115.697L151.952 115.554Z" fill="#73380B"/>
<path d="M168.484 108.09C169.867 108.017 170.213 108.872 170.062 110.1C169.118 109.957 168.551 108.971 168.484 108.09Z" fill="#73380B"/>
<path d="M163.333 113.761C163.783 113.898 163.922 113.909 164.198 114.277C164.339 114.706 164.291 114.818 164.192 115.266C163.723 115.131 163.648 115.142 163.343 114.793C163.176 114.346 163.236 114.236 163.333 113.761Z" fill="#73380B"/>
<path d="M110.294 118.78C112.938 117.851 114.098 117.173 116.543 115.707C115.148 117.748 113.471 120.105 113.967 122.745C114.182 123.903 114.865 124.922 115.855 125.562C120 128.297 125.762 124.698 129.578 122.865L129.051 123.798C127.735 130.826 137.183 131.041 141.703 130.383C145.098 129.888 149.81 129.724 152.916 128.173C157.04 126.113 159.998 124.06 164.398 122.418C166.507 124.059 168.521 125.429 169.41 128.141C169.214 128.597 169.021 129.063 168.792 129.503C167.761 131.486 165.208 132.59 163.166 133.261C151.644 137.048 126.863 133.367 116.029 127.866C113.822 126.745 111.22 125.05 110.54 122.541C110.3 121.654 110.331 120.657 110.041 119.816C110.033 119.793 110.024 119.77 110.016 119.747C110.16 119.539 110.235 119.049 110.294 118.78Z" fill="#B46D14"/>
<path d="M162.419 127.264C163.084 127.248 164.441 127.134 164.752 127.839C164.55 128.217 164.418 128.226 163.997 128.412C163.372 128.494 161.623 128.583 161.484 127.754C161.726 127.413 162.004 127.389 162.419 127.264Z" fill="#E28F26"/>
<path d="M125.148 129.285C126.242 129.143 127.33 128.934 127.63 130.149C126.677 130.188 125.447 130.345 125.148 129.285Z" fill="#E28F26"/>
<path d="M104.143 68.5745C105.67 68.3993 107.67 67.712 109.085 67.8337L109.069 67.9069C108.507 67.9343 108.45 67.8389 108.084 68.1497C107.815 68.9417 107.958 69.8668 107.87 70.8373C110.402 71.1398 112.081 71.4933 114.561 72.203C116.084 71.9518 117.243 71.3097 118.689 71.0379C121.183 71.7422 124.208 73.2849 126.531 74.479C126.174 78.0552 128.798 78.2376 131.67 78.4553C132.704 78.5397 133.741 78.5828 134.778 78.584C135.548 79.3299 138.717 81.3416 139.853 82.1723C136.904 83.5686 130.946 86.0384 129.845 89.284C130.115 93.0765 132.382 92.7418 135.38 92.36C135.644 92.3271 135.906 92.2891 136.168 92.246C136.034 92.8927 135.086 93.4001 134.529 93.744C130.267 96.3779 126.585 99.6911 123.39 103.543C122.46 104.663 121.649 105.984 120.685 107.041L120.59 107.143C119.495 106.114 118.546 104.867 117.432 103.841C112.149 98.9725 106.2 94.8215 99.5655 91.9913C97.9455 91.3002 95.4842 89.9817 93.6355 89.7698C93.413 89.7444 93.3159 89.9752 93.2048 90.1451C91.6957 87.386 100.693 80.0248 102.783 78.1894C102.015 77.8787 101.048 77.3809 100.285 77.0152C99.2221 76.4032 98.8048 76.0984 97.8759 75.3453C97.4594 74.8125 97.2621 74.154 97.2855 73.4903C97.3832 70.7202 101.004 70.4985 102.815 70.4699L103.265 70.3395C103.616 69.9496 104.049 69.091 104.143 68.5745Z" fill="#FECD4C"/>
<path d="M104.144 68.5745C105.672 68.3993 107.672 67.712 109.087 67.8337L109.071 67.9069C108.508 67.9343 108.451 67.8389 108.085 68.1497C107.817 68.9417 107.959 69.8668 107.871 70.8373C110.404 71.1398 112.082 71.4933 114.563 72.203C118.171 73.2021 127.397 76.2733 129.225 79.5052C129.612 80.188 129.676 80.9023 129.451 81.6492C129.302 82.142 129.03 82.6161 128.553 82.8552C125.803 84.2354 111.75 81.0499 108.276 80.0803C106.399 79.5563 104.598 78.8934 102.784 78.1894C102.016 77.8787 101.05 77.3809 100.286 77.0152C99.2237 76.4032 98.8064 76.0984 97.8774 75.3453C97.461 74.8125 97.2637 74.154 97.287 73.4903C97.3847 70.7202 101.006 70.4985 102.817 70.4699L103.266 70.3395C103.617 69.9496 104.05 69.091 104.144 68.5745Z" fill="url(#paint2_linear_222_3404)"/>
<path d="M104.144 68.5745C105.671 68.3993 107.671 67.712 109.087 67.8337L109.07 67.9069C108.508 67.9343 108.451 67.8389 108.085 68.1497C107.816 68.9417 107.959 69.8668 107.871 70.8373C106.194 70.6239 104.507 70.5013 102.816 70.4699L103.266 70.3395C103.617 69.9496 104.05 69.091 104.144 68.5745Z" fill="#EADCBA"/>
<path d="M123.183 76.1229C124.245 75.9948 128.408 79.5944 124.027 80.5222C122.767 80.2171 122.105 79.8915 120.988 79.3112C120.082 78.9086 117.13 77.7292 117.137 76.65C117.73 76.067 122.216 76.1123 123.183 76.1229Z" fill="#B13030"/>
<path d="M109.67 77.1567C110.398 77.1919 111.359 77.4566 112.07 77.4607C113.085 77.452 114.093 77.1956 115.11 77.262C116.235 77.3354 117.375 77.7425 117.219 79.0984C115.515 79.595 111.205 78.9637 109.698 77.7583C109.551 77.6408 109.645 77.3514 109.67 77.1567Z" fill="#B13030"/>
<path d="M112.491 74.521C113.156 74.5961 113.874 74.9566 114.017 75.6625C113.847 76.0243 113.939 75.9013 113.525 76.1156C112.797 76.093 111.871 76.0788 111.758 75.1779C111.95 74.7705 112.071 74.753 112.491 74.521Z" fill="#D7494F"/>
<path d="M102.309 82.3267C102.427 82.3865 102.491 82.4695 102.593 82.5675C103.038 83.5634 102.117 84.343 101.277 84.6904C100.241 83.5632 101.389 82.8816 102.309 82.3267Z" fill="#C3C94F"/>
<path d="M106.453 83.457C106.529 83.478 106.604 83.5005 106.678 83.5246C107.172 83.6864 107.386 83.8184 107.607 84.2667C107.566 84.8533 107.597 84.6649 107.187 85.1812C106.478 85.045 106.247 84.9535 105.996 84.2865C106.1 83.7334 106.019 83.9428 106.453 83.457Z" fill="#FCB340"/>
<path d="M125.919 89.4352C126.19 89.3194 126.505 89.4421 126.626 89.7109C126.747 89.98 126.629 90.2963 126.362 90.4216C126.185 90.505 125.977 90.4861 125.817 90.3728C125.658 90.2592 125.572 90.0688 125.593 89.8744C125.614 89.6802 125.739 89.5121 125.919 89.4352Z" fill="#FCB340"/>
<path d="M120.728 96.16C120.877 96.033 121.084 95.9991 121.266 96.0723C121.448 96.1455 121.574 96.3133 121.593 96.5081C121.612 96.7029 121.522 96.8922 121.358 96.9995C121.125 97.1512 120.815 97.0968 120.648 96.8749C120.482 96.653 120.516 96.3401 120.728 96.16Z" fill="#FCB340"/>
<path d="M115.108 88.6829C115.252 88.5644 115.45 88.5349 115.622 88.6064C115.794 88.6777 115.913 88.8384 115.93 89.0239C115.947 89.2092 115.86 89.3888 115.704 89.4907C115.481 89.6365 115.182 89.5826 115.024 89.3681C114.865 89.1535 114.903 88.8528 115.108 88.6829Z" fill="#FCB340"/>
<path d="M131.389 98.3075C131.788 98.0499 132.142 97.8363 132.506 97.5273C132.571 98.2726 132.618 98.7544 132.77 99.4825C134.374 99.0091 135.17 98.7252 136.866 98.6849C138.381 98.7148 139.712 98.8648 141.213 99.0247C142.482 99.1975 143.531 99.4164 144.786 99.6859C145.859 99.946 147.458 100.235 148.433 100.54L147.917 100.858C150.571 102.954 151.448 104.442 151.62 107.839C152.452 107.668 157.456 104.755 158.84 104.167C159.846 104.588 160.74 104.953 161.708 105.459C158.998 106.559 154.528 109.09 151.935 110.601L151.405 110.914L138.461 118.026L137.771 118.422C135.057 119.759 132.3 121.677 129.578 122.865C125.761 124.699 120 128.297 115.854 125.562C114.864 124.922 114.182 123.903 113.967 122.745C113.47 120.105 115.147 117.748 116.543 115.707C114.097 117.173 112.938 117.852 110.293 118.78C108.138 119.504 106.772 119.755 104.493 119.829C100.201 119.636 98.2881 116.203 100.205 112.378C100.886 111.13 101.399 110.539 102.357 109.535L103.542 108.479C105.793 106.205 111.646 103.727 114.63 102.647C115.416 103.264 115.953 103.705 116.686 104.394L118.689 106.403C119.313 107.022 119.932 107.646 120.546 108.275C123.694 104.679 127.601 101.225 131.389 98.3075Z" fill="#6A5750"/>
<path d="M147.918 100.858C150.572 102.954 151.449 104.442 151.622 107.839C150.291 108.591 149.023 109.318 147.644 109.983C145.56 110.261 143.223 111.384 141.344 112.371C139.937 113.111 138.18 114.2 136.846 115.131C136.7 115.142 136.577 115.151 136.478 115.158C134 114.469 131.045 113.896 128.517 113.445C127.172 113.205 125.177 113.216 123.922 112.869C127.237 111.07 129.549 109.294 133.21 107.542C135.701 106.35 138.216 105.208 140.752 104.114C142.941 103.183 145.866 102.028 147.918 100.858Z" fill="url(#paint3_linear_222_3404)"/>
<path d="M137.127 105.717C137.705 105.788 137.73 105.84 138.008 106.32C138.056 106.787 138.005 106.862 137.803 107.292C137.289 107.279 137.221 107.184 136.954 106.785C136.867 106.322 136.966 106.149 137.127 105.717Z" fill="#73380B"/>
<path d="M123.92 112.869C125.176 113.216 127.171 113.205 128.516 113.445C131.043 113.895 133.999 114.469 136.477 115.158C134.93 116.334 134.236 116.919 132.929 118.338C132.216 118.849 130.393 119.995 129.543 120.405C126.168 121.97 121.725 125.124 117.855 124.278C116.047 123.883 115.485 122.014 116.098 120.395C117.357 117.069 120.832 114.397 123.92 112.869Z" fill="#B46D14"/>
<path d="M119.453 120.065C119.592 120.048 119.731 120.033 119.87 120.019C120.687 119.937 121.793 119.877 122.452 120.418C122.613 120.802 122.601 120.63 122.461 121.062C121.6 121.222 120.298 121.248 119.534 120.762C119.308 120.375 119.343 120.558 119.453 120.065Z" fill="#E28F26"/>
<path d="M128.309 117.272C128.964 117.244 130.35 117.386 130.517 118.144C130.218 118.452 130.17 118.386 129.709 118.498C129.096 118.486 127.401 118.403 127.293 117.645C127.592 117.325 127.863 117.341 128.309 117.272Z" fill="#E28F26"/>
<path d="M131.389 98.3075C131.789 98.0499 132.142 97.8363 132.506 97.5273C132.571 98.2726 132.618 98.7544 132.77 99.4825C134.374 99.0091 135.17 98.7252 136.866 98.6849C136.247 99.1669 135.588 99.5921 134.921 100.005C129.848 103.151 125.223 106.919 120.457 110.494C119.431 111.263 118.237 112.224 117.154 112.871C112.706 112.07 109.932 111.903 105.75 109.617C107.379 108.435 110.387 107.007 112.219 106.162C113.72 105.491 115.121 104.9 116.686 104.394L118.689 106.403C119.313 107.022 119.932 107.646 120.546 108.275C123.694 104.679 127.601 101.225 131.389 98.3075Z" fill="#73380B"/>
<path d="M116.685 104.394L118.689 106.403C116.812 106.689 113.887 107.504 112.219 106.161C113.72 105.49 115.121 104.9 116.685 104.394Z" fill="#824311"/>
<path d="M105.75 109.616C109.931 111.902 112.706 112.07 117.154 112.871C113.021 115.454 109.622 117.461 104.622 117.876C104.672 116.672 102.736 114.288 101.766 113.66C102.758 112.071 104.109 110.557 105.75 109.616Z" fill="#C5462E"/>
<path d="M141.213 99.0244C142.481 99.1972 143.53 99.4162 144.785 99.6856C144.326 100.065 143.627 100.326 143.065 100.549C138.716 102.27 134.538 104.338 130.27 106.241C131.883 104.651 136.492 101.82 138.482 100.558C139.25 100.071 140.309 99.6081 141.125 99.0818L141.213 99.0244Z" fill="#824311"/>
<path d="M136.478 115.158C136.577 115.151 136.699 115.142 136.846 115.131C138.179 114.2 139.937 113.111 141.344 112.371C143.223 111.384 145.56 110.261 147.643 109.983C145.986 111.032 143.348 112.455 141.593 113.445C139.379 114.695 135.138 117.423 132.93 118.338C134.237 116.919 134.931 116.334 136.478 115.158Z" fill="#824311"/>
<path d="M101.765 113.66C102.735 114.288 104.671 116.672 104.621 117.876C101.857 117.682 100.741 116.376 101.765 113.66Z" fill="#DC6135"/>
<path d="M147.633 79.7255C150.189 79.2142 158.187 77.5067 160.333 78.8888C160.808 79.1953 161.475 80.2291 161.548 80.7864C161.629 81.4004 161.325 81.9783 160.94 82.4334C158.156 85.7248 144.814 90.3224 140.382 91.5105C139.01 91.8784 137.506 91.8466 136.167 92.2458C135.905 92.2888 135.643 92.3269 135.379 92.3597C132.381 92.7415 130.114 93.0763 129.844 89.2838C130.945 86.0382 136.903 83.5683 139.852 82.1721C140.656 81.8986 141.35 81.6294 142.133 81.3137C144.055 80.6764 145.687 80.2183 147.633 79.7255Z" fill="#C5462E"/>
<path d="M142.133 81.3138C144.055 80.6765 145.687 80.2184 147.633 79.7256C148.049 80.1581 148.639 80.575 148.817 81.0593C148.73 82.1156 147.705 84.3059 146.466 84.3394C146.129 84.1348 146.122 84.1246 145.947 83.7599C146.351 82.8843 147.182 82.4478 147.022 81.5972C145.731 79.951 139.266 82.9234 138.741 84.0664C138.978 84.7332 140.039 84.4334 140.665 84.3746C141.097 84.7413 142.195 85.5652 142.305 86.0347C141.954 87.2249 140.161 86.9427 140.231 88.1001C140.249 88.4039 140.192 88.4748 140.014 88.7031C139.349 89.126 136 89.9702 135.48 89.3213C136.422 88.0493 140.323 87.6189 140.221 85.8307C139.142 84.9998 132.266 85.6396 132.953 88.4126C133.02 88.6808 133.144 89.1366 133.099 89.3905C131.953 89.8804 130.805 89.0655 129.844 89.2838C130.945 86.0382 136.903 83.5684 139.852 82.1721C140.656 81.8987 141.35 81.6294 142.133 81.3138Z" fill="#D7494F"/>
<path d="M153.281 79.6203C156.289 79.1682 159.068 81.426 155.27 82.9017C154.605 83.1604 152.722 83.3697 151.924 83.4887C151.131 83.6621 149.365 84.0156 148.728 83.4084C148.399 81.9096 151.989 79.9709 153.281 79.6203Z" fill="#B13030"/>
<path d="M146.983 84.5767C147.796 84.501 148.88 84.2193 149.28 85.0884C148.997 86.5577 145.869 87.5366 144.57 87.8317L144.341 87.8903C143.81 88.0247 143.122 88.275 142.636 87.9866L142.625 87.776C143.279 86.9652 144.519 86.5781 145.256 86.0127C145.94 85.4885 146.113 85.1431 146.983 84.5767Z" fill="#B13030"/>
<path d="M143.888 83.6277L144.411 83.6138C144.876 83.8521 144.718 83.7123 145.01 84.1436C145.06 84.7164 144.535 85.4677 144.044 85.5927C143.564 85.3995 143.274 85.5087 142.787 85.1477C142.556 84.7335 142.574 84.9088 142.683 84.5033C143.072 84.0442 143.363 83.9194 143.888 83.6277Z" fill="#D7494F"/>
<path d="M185.254 76.5376C185.9 77.3564 187.228 81.0038 187.72 82.1876C188.115 83.3048 188.486 84.1999 188.961 85.2878C189.233 85.838 189.877 86.8873 189.718 87.4123C188.082 90.2795 186.584 92.3149 184.312 94.7457C183.83 95.2615 181.592 97.23 181.4 97.5496C179.907 96.2993 177.188 97.1359 175.473 97.5133C172.717 98.2348 168.645 99.461 166.094 100.766C167.479 97.7655 172.401 90.6814 174.551 88.4174C175.909 86.2508 178.386 84.1606 180.185 82.321C181.067 81.4197 183.699 79.7377 182.431 78.4196L182.077 78.0135C183.101 77.3419 184.079 76.8738 185.254 76.5376Z" fill="#DC6135"/>
<path d="M174.551 88.4172C175.885 87.8674 177.923 86.893 179.388 87.6279C181.376 88.6245 181.827 89.6827 181.05 91.7776C180.18 94.1222 176.367 96.0047 175.473 97.513C172.717 98.2345 168.645 99.4607 166.094 100.766C167.479 97.7652 172.401 90.6812 174.551 88.4172Z" fill="#C5462E"/>
<path d="M187.721 82.1875C188.116 83.3047 188.487 84.1999 188.962 85.2878C188.325 85.8357 188.423 87.4719 187.604 88.1265C187.388 88.5507 186.099 88.8172 185.942 88.2951C185.355 86.3383 187.378 84.2818 187.721 82.1875Z" fill="#F3813D"/>
<path d="M96.1076 99.5507C96.007 99.2573 95.513 98.9791 95.6426 98.0542C95.7141 97.5437 95.6972 97.5215 96.0774 97.1801C96.6826 97.0734 96.4312 97.0586 97.0366 97.2691C99.967 99.6405 104.967 98.6215 108.372 97.8505C109.26 98.441 109.991 98.9421 110.836 99.5921C112.224 100.632 113.318 101.529 114.63 102.647C111.645 103.727 105.792 106.205 103.542 108.478C100.909 107.627 98.9197 106.326 97.0905 104.281C96.108 102.66 96.0057 101.393 96.1076 99.5507Z" fill="#73380B"/>
<path d="M96.1076 99.5507C96.007 99.2573 95.513 98.9791 95.6426 98.0542C95.7141 97.5437 95.6972 97.5215 96.0774 97.1801C96.6826 97.0734 96.4312 97.0586 97.0366 97.2691C99.967 99.6405 104.967 98.6215 108.372 97.8505C109.26 98.441 109.991 98.9421 110.836 99.5921C106.629 100.812 102.602 101.829 98.2366 100.505C97.3026 100.221 96.9057 99.8732 96.1076 99.5507Z" fill="#6A5750"/>
<path d="M182.43 78.4194C183.698 79.7375 181.066 81.4195 180.184 82.3209C178.385 84.1605 175.907 86.2506 174.55 88.4173C172.4 90.6812 167.478 97.7653 166.092 100.766C165.689 101.638 165.137 102.759 164.811 103.632C164.415 104.264 164.038 105.818 163.626 106.131C163.002 106.248 162.306 105.767 161.706 105.459C160.738 104.953 159.844 104.588 158.838 104.167C157.454 104.755 152.45 107.667 151.618 107.839C151.446 104.442 150.568 102.954 147.914 100.858L148.431 100.54C147.455 100.235 145.857 99.9459 144.783 99.6858C143.529 99.4163 142.48 99.1973 141.211 99.0246C139.71 98.8647 138.379 98.7147 136.864 98.6848C135.168 98.7251 134.372 99.009 132.768 99.4824C132.615 98.7542 132.569 98.2725 132.504 97.5272C132.139 97.8362 131.786 98.0498 131.387 98.3074C131.559 97.8907 131.789 97.5894 132.214 97.427C133.08 97.6006 134.358 97.1621 135.431 97.0586C136.463 96.9658 137.499 96.9494 138.534 97.0091C146.084 97.4116 150.285 98.5952 157.102 102.014C159.152 103.042 161.075 103.773 163.147 105.031C163.57 104.654 163.783 103.492 164.137 102.74C165.316 100.22 166.662 97.7805 168.165 95.4381C171.88 89.6961 176.732 84.0848 181.664 79.3518C182.006 79.0231 182.25 78.8723 182.43 78.4194Z" fill="#FCB340"/>
<path d="M148.431 100.54C149.268 100.975 150.381 101.274 151.295 101.542C153.86 102.293 156.335 103.234 158.838 104.167C157.454 104.755 152.449 107.668 151.618 107.839C151.446 104.442 150.568 102.954 147.914 100.858L148.431 100.54Z" fill="#DC6135"/>
<path d="M102.024 94.1499C103.676 94.9351 106.802 96.7888 108.371 97.8505C104.965 98.6215 99.9656 99.6406 97.0352 97.2691C97.4656 96.7197 97.6072 96.5625 98.1312 96.1038C99.4706 95.0047 100.348 94.6123 102.024 94.1499Z" fill="#824311"/>
<path d="M96.2422 91.7492C96.8807 91.5856 101.158 93.7034 102.025 94.1502C100.35 94.6127 99.4718 95.005 98.1324 96.1042C97.3189 94.8948 96.5991 93.1605 96.2422 91.7492Z" fill="#DC6135"/>
<path d="M152.457 91.4397C152.596 91.316 152.791 91.2769 152.967 91.3379C153.143 91.3988 153.272 91.5499 153.304 91.7329C153.336 91.9161 153.267 92.1022 153.122 92.2195C152.906 92.3952 152.589 92.3663 152.408 92.1544C152.227 91.9423 152.249 91.625 152.457 91.4397Z" fill="#FCB340"/>
<path d="M167.116 79.298C167.264 79.1867 167.463 79.168 167.629 79.2493C167.796 79.3304 167.903 79.4982 167.907 79.6833C167.91 79.8685 167.81 80.0403 167.646 80.1278C167.418 80.2499 167.135 80.1761 166.996 79.9586C166.857 79.7409 166.909 79.4529 167.116 79.298Z" fill="#FCB340"/>
<path d="M147.444 91.5557C147.647 91.4097 147.93 91.4553 148.078 91.6576C148.225 91.8599 148.181 92.1429 147.98 92.2912C147.776 92.4407 147.49 92.3964 147.341 92.1924C147.192 91.9884 147.239 91.7027 147.444 91.5557Z" fill="#FCB340"/>
<path d="M191.207 49.3233C193.078 48.3797 194.63 47.7777 196.575 47.0327C197.698 47.5781 198.336 47.9994 199.28 48.8066C199.353 49.6423 199.416 50.6331 199.515 51.4565C201.15 51.8341 202.233 52.3583 203.133 53.7891C205.653 57.7949 206.173 62.5998 208.418 66.6882C210.314 70.1374 213.143 72.4226 214.897 76.04C215.606 77.5001 215.816 80.5395 215.958 80.7973C217.893 81.2175 219.808 81.6579 221.699 82.2474C223.685 82.8658 224.768 82.9427 225.591 84.9855C225.006 85.7756 224.722 86.1447 223.985 86.8217C220.758 86.2087 218.397 85.6032 215.108 85.6338C214.881 87.8005 213.412 90.078 211.691 91.4921C211.639 91.5362 211.574 91.5508 211.51 91.5705C206.041 96.0088 197.308 95.515 192.379 90.63C191.723 89.9798 190.183 87.5865 189.72 87.4121C189.88 86.887 189.236 85.8378 188.963 85.2876C188.488 84.1997 188.117 83.3045 187.722 82.1873C187.231 81.0036 185.903 77.3562 185.256 76.5374C184.081 76.8736 183.104 77.3417 182.08 78.0133C181.627 77.855 180.831 77.3238 180.394 77.0616C175.899 74.3655 170.975 72.1431 165.78 71.2555C165.715 71.1687 165.65 71.082 165.584 70.9953C165.584 70.0538 165.5 69.576 165.171 68.7068C165.037 68.5455 164.898 68.3893 164.752 68.2388C162.824 66.2605 156.596 66.2353 153.949 66.1883C154.874 65.4861 157.359 62.997 157.774 62.8206C160.005 62.2278 161.466 62.7851 163.673 63.3234C166.301 64.2175 168.925 60.8557 170.317 59.1621C171.679 57.0582 173.146 54.5297 173.015 51.9969C176.509 49.075 177.148 48.6777 181.959 47.9674C183.797 47.4977 189.383 48.5881 191.207 49.3233Z" fill="#FCF4D8"/>
<path d="M170.317 59.1621C170.96 60.543 170.731 61.7663 171.76 63.4998C174.682 68.4226 182.769 71.6414 185.256 76.5374C184.081 76.8736 183.104 77.3417 182.08 78.0133C181.627 77.8551 180.831 77.3238 180.394 77.0616C175.899 74.3655 170.975 72.1432 165.78 71.2555C165.715 71.1688 165.65 71.0821 165.584 70.9954C165.584 70.0538 165.5 69.576 165.171 68.7069C165.037 68.5455 164.898 68.3893 164.752 68.2388C162.824 66.2605 156.596 66.2354 153.949 66.1884C154.874 65.4862 157.359 62.997 157.774 62.8207C160.005 62.2279 161.466 62.7851 163.673 63.3235C166.301 64.2176 168.925 60.8557 170.317 59.1621Z" fill="white"/>
<path d="M181.958 47.9673L182.175 48.1796C181.981 48.5697 179.992 49.4145 179.489 49.7715C175.682 52.4742 173.27 56.6477 174.796 61.3316C176.582 66.817 182.465 68.6007 185.747 72.9477C187.075 74.7056 187.493 76.2372 188.02 78.2968C189.623 84.5662 191.433 88.1512 197.568 91.0146C201.887 93.0305 205.446 93.3959 210.114 91.8424C210.657 91.6611 211.057 91.3648 211.509 91.5704C206.041 96.0088 197.308 95.5149 192.379 90.6299C191.723 89.9797 190.183 87.5864 189.72 87.412C189.879 86.8869 189.235 85.8377 188.963 85.2875C188.488 84.1996 188.117 83.3045 187.722 82.1872C187.231 81.0035 185.902 77.3561 185.256 76.5373C182.768 71.6413 174.682 68.4225 171.76 63.4997C170.731 61.7661 170.96 60.5429 170.316 59.162C171.679 57.0581 173.146 54.5296 173.014 51.9968C176.509 49.0749 177.148 48.6776 181.958 47.9673Z" fill="#EADCBA"/>
<path d="M191.204 49.3233C193.074 48.3797 194.627 47.7777 196.571 47.0327C197.695 47.5781 198.332 47.9994 199.276 48.8066C199.349 49.6423 199.413 50.6331 199.512 51.4565C199.192 51.9497 197.863 52.4365 197.263 52.7247C196.257 53.2156 195.268 53.74 194.298 54.2971C191.55 55.8412 189.204 57.3988 186.677 59.2687C185.256 60.3207 183.128 62.2784 181.76 63.1427C181.106 63.1825 179.459 63.4424 179.155 62.8489C179.156 62.363 178.906 60.9915 178.82 60.4477C181.426 56.477 187.193 51.7734 191.204 49.3233Z" fill="#E28F26"/>
<path d="M191.204 49.3233C193.074 48.3797 194.627 47.7777 196.571 47.0327C197.695 47.5781 198.332 47.9994 199.276 48.8066C197.15 49.3903 195.074 49.9434 193.102 50.9082C189.232 52.8012 181.302 59.27 179.155 62.8489C179.156 62.363 178.906 60.9915 178.82 60.4477C181.426 56.477 187.193 51.7734 191.204 49.3233Z" fill="#FCB340"/>
<path d="M204.136 80.4982C207.364 79.9767 212.737 80.358 215.957 80.7972C217.893 81.2174 219.807 81.6578 221.699 82.2473C223.685 82.8657 224.768 82.9426 225.591 84.9854C225.005 85.7755 224.722 86.1446 223.984 86.8216C220.757 86.2086 218.397 85.6031 215.107 85.6337C210.705 85.6501 209.455 86.2833 205.555 86.7752C204.763 86.1207 203.866 85.1962 203.191 84.4248C203.289 82.9642 203.513 81.8318 204.136 80.4982Z" fill="#E28F26"/>
<path d="M202.719 77.4673C201.271 79.2021 200.204 78.8484 198.402 77.7015C193.175 74.3419 189.281 69.0036 187.716 62.9906C187.026 60.3366 187.848 59.2281 190.599 58.7099C193.572 58.1499 196.429 58.8039 198.927 60.5501C204.529 64.5329 207.346 71.5294 202.719 77.4673Z" fill="#FECD4C"/>
<path d="M202.719 77.4673C201.271 79.2021 200.204 78.8484 198.402 77.7015C193.175 74.3419 189.281 69.0036 187.716 62.9906C187.026 60.3366 187.848 59.2281 190.599 58.7099C193.572 58.1499 196.429 58.8039 198.927 60.5501C198.391 60.8452 197.975 60.8073 197.482 60.9876C193.071 62.5982 194.03 69.6773 195.699 73.0063C196.535 74.6737 198.231 76.3688 199.947 77.0664C200.838 77.4141 202.134 77.1814 202.719 77.4673Z" fill="#FCB340"/>
<path d="M181.653 51.5C182.23 51.5915 182.163 51.5495 182.472 51.8897C182.54 52.3567 182.327 52.6991 182.133 53.1489C181.615 53.0867 181.505 52.9651 181.293 52.542C181.301 52.0244 181.373 51.9446 181.653 51.5Z" fill="#EADCBA"/>
<path d="M199.609 83.5042C200.104 83.4892 200.43 83.4919 200.799 83.8088C201.046 84.2479 200.995 84.474 200.989 84.9807C199.872 84.816 199.726 84.5447 199.609 83.5042Z" fill="#EADCBA"/>
<path d="M209.961 75.8477C210.917 75.9556 211.271 76.1381 211.305 77.1499C210.288 76.9196 210.09 76.8486 209.961 75.8477Z" fill="#EADCBA"/>
<path d="M189.066 75.0869C189.471 75.1112 189.515 75.1327 189.855 75.3547C190.089 75.7554 190.025 75.9085 189.973 76.373C189.589 76.2971 189.577 76.295 189.267 76.0488C189.04 75.6687 189.076 75.55 189.066 75.0869Z" fill="#EADCBA"/>
<path d="M193.152 81.4545C193.579 81.4493 193.6 81.4409 193.955 81.6528C194.254 82.0167 194.257 82.2517 194.333 82.7073C193.484 82.5586 193.352 82.2413 193.152 81.4545Z" fill="#EADCBA"/>
<path d="M57.2767 79.4422C57.6469 79.0952 57.9421 77.2462 58.3132 76.4754C58.7423 75.4763 59.2838 74.2672 60.0886 73.5074C63.5338 70.2549 67.4679 69.1607 70.4075 65.1909C72.9381 61.7735 75.2165 57.4512 79.2465 55.7C81.7481 54.6129 84.555 54.9286 87.2094 54.962C91.5419 54.9805 95.3258 54.7786 99.4148 56.4637L99.6056 56.3529L99.7056 55.6378C99.9035 58.2892 100.575 61.059 103.031 62.5399L102.93 62.8437L102.625 63.0851C103.094 64.685 103.107 66.8007 103.181 68.5026L104.142 68.5744C104.048 69.0909 103.615 69.9494 103.264 70.3393L102.815 70.4697C101.004 70.4984 97.3827 70.72 97.285 73.4901C97.2616 74.1538 97.4589 74.8124 97.8754 75.3451C98.8043 76.0982 99.2216 76.403 100.284 77.015C96.8598 78.3146 91.721 80.0955 88.9756 82.3031C82.8723 87.2112 81.9404 94.0341 73.1108 95.5256C70.3306 95.9762 67.479 95.5948 64.9156 94.4296C62.5817 93.3887 60.2202 91.5505 58.8432 89.3752C57.9694 88.4388 57.2875 86.1888 57.5813 84.8965C53.7892 83.7857 49.8632 82.9775 45.9069 82.8648C45.8551 81.9659 45.8663 80.9395 45.8555 80.0296C45.888 79.0442 45.9132 78.0586 45.9313 77.0728C50.7336 77.77 52.5738 78.0717 57.2767 79.4422Z" fill="#FCF4D8"/>
<path d="M45.9313 77.0728C50.7336 77.77 52.5738 78.0717 57.2767 79.4422C59.5105 80.281 63.8298 82.0053 65.7061 83.5018C65.8236 84.2614 65.9425 85.2096 66.0923 85.9478C65.6644 86.3971 64.4498 86.9477 63.8484 87.2394C61.7673 86.437 59.6784 85.6558 57.5813 84.8964C53.7892 83.7857 49.8632 82.9774 45.9069 82.8647C45.8551 81.9658 45.8663 80.9395 45.8555 80.0296C45.888 79.0442 45.9132 78.0586 45.9313 77.0728Z" fill="#E28F26"/>
<path d="M45.9313 77.0728C50.7336 77.77 52.5738 78.0717 57.2767 79.4422C59.5105 80.281 63.8298 82.0053 65.7061 83.5018C65.8236 84.2614 65.9425 85.2096 66.0923 85.9478C64.4517 85.3054 62.2496 83.8824 60.5129 83.0567C56.6946 81.2851 52.5982 80.1866 48.4046 79.8094C47.6778 79.741 46.2982 79.4311 45.8555 80.0296C45.888 79.0442 45.9132 78.0586 45.9313 77.0728Z" fill="#FCB340"/>
<path d="M97.876 75.3452C98.8049 76.0983 99.2222 76.4032 100.285 77.0151C96.8604 78.3147 91.7216 80.0957 88.9762 82.3033C82.8729 87.2113 81.941 94.0342 73.1114 95.5257C70.3312 95.9763 67.4796 95.595 64.9162 94.4297C62.5823 93.3888 60.2208 91.5507 58.8438 89.3753C59.244 89.4073 59.9037 89.959 60.33 90.2232C61.5887 91.0038 62.6687 91.5937 64.0481 92.1254C70.4702 94.6264 77.7748 92.7581 82.2016 87.4827C84.8333 84.383 85.3556 81.8265 89.125 79.0304C92.7277 76.3576 94.3085 76.9166 97.876 75.3452Z" fill="#EADCBA"/>
<path d="M103.181 68.5029C100.217 67.9016 100.548 64.7599 102.625 63.0854C103.094 64.6853 103.107 66.801 103.181 68.5029Z" fill="#ACB434"/>
<path d="M79.7666 78.5848C78.26 78.9046 74.0462 81.0355 72.2773 80.334C71.5421 79.5386 70.7489 77.3663 70.5166 76.3558C68.5489 67.7465 81.5631 60.132 88.5345 64.7492C91.5714 66.7605 90.5462 68.0996 88.7831 70.3968C87.6368 72.341 86.0968 73.6576 84.705 75.429C83.2 77.3443 82.5714 79.1654 80.7814 80.8411C80.3162 80.8623 80.4985 80.9074 80.0941 80.6641C79.6141 79.9503 79.6918 79.4047 79.7666 78.5848Z" fill="#FECD4C"/>
<path d="M79.7668 78.5852C80.4613 75.3687 83.889 70.5205 86.9397 69.1552C87.9767 68.6909 88.5365 69.5582 88.7832 70.3972C87.637 72.3414 86.097 73.658 84.7051 75.4294C83.2001 77.3446 82.5715 79.1657 80.7815 80.8415C80.3163 80.8627 80.4986 80.9078 80.0943 80.6645C79.6143 79.9507 79.692 79.405 79.7668 78.5852Z" fill="#F3813D"/>
<path d="M77.0146 87.0259C77.4159 87.0897 77.2453 87.0092 77.5492 87.2665L77.538 87.5623C77.2457 88.0427 77.1059 88.1198 76.6678 88.4407C76.2359 88.3022 76.0594 88.2504 76.0273 87.7811C76.289 87.3571 76.5705 87.2648 77.0146 87.0259Z" fill="#EADCBA"/>
<path d="M65.8892 76.6069C66.3604 76.6668 66.3821 76.7074 66.4846 77.1176C66.3483 77.6458 66.2123 77.788 65.8971 78.214C65.3823 78.0945 65.34 78.0637 65.25 77.5757C65.4127 77.0771 65.5406 76.976 65.8892 76.6069Z" fill="#EADCBA"/>
<path d="M67.6996 87.2646C67.9854 87.0756 68.3692 87.1422 68.5744 87.4164C68.7794 87.6905 68.7344 88.077 68.4719 88.2968C68.2881 88.4505 68.0346 88.4902 67.8125 88.3999C67.5906 88.3097 67.4371 88.1043 67.4133 87.8664C67.3896 87.6283 67.4998 87.3967 67.6996 87.2646Z" fill="#EADCBA"/>
<path d="M77.9769 62.2886C78.4825 62.3572 78.4963 62.3424 78.7709 62.6645C78.8096 63.117 78.6821 63.2588 78.4644 63.662C77.9079 63.6104 77.9854 63.7061 77.6438 63.4077C77.5825 62.9914 77.7896 62.6864 77.9769 62.2886Z" fill="#EADCBA"/>
<path d="M88.3053 77.6104C88.757 77.7927 88.8011 77.8459 88.9616 78.2568C88.8966 78.6885 88.7186 78.8347 88.4391 79.1755C88.0126 78.9777 88.0051 78.9247 87.8828 78.5215C87.9603 78.0572 88.0226 77.9934 88.3053 77.6104Z" fill="#EADCBA"/>
<path d="M71.7953 85.0273C72.2648 85.7231 71.8421 86.1333 71.2536 86.5097C70.9738 86.1593 70.919 85.9759 70.9878 85.5451C71.3632 85.1105 71.1869 85.2559 71.7953 85.0273Z" fill="#EADCBA"/>
<path d="M96.7662 66.8525C97.2841 67.001 97.1625 66.8891 97.4791 67.2428C97.5125 67.6502 97.3772 67.7812 97.1529 68.1423C96.7587 68.1051 96.735 68.1139 96.4425 67.8706C96.412 67.3703 96.5218 67.3408 96.7662 66.8525Z" fill="#EADCBA"/>
<path d="M83.487 58.2061C83.7795 58.272 83.7582 58.2674 83.9701 58.482C83.8545 58.9419 83.6718 59.0004 83.2957 59.3823C82.927 59.2621 83.0751 59.3657 82.8359 59.0613C82.9024 58.6826 83.1924 58.488 83.487 58.2061Z" fill="#EADCBA"/>
<path d="M182.004 108.226C189.54 104.249 210.249 92.1118 218.435 94.56C219.893 94.996 221.164 95.8325 221.893 97.1955C222.647 98.6068 222.749 100.27 222.279 101.789C221.533 104.199 219.737 105.935 217.543 107.066C213.974 108.905 209.831 109.826 205.979 110.921L191.6 115.023C188.563 115.898 178.737 117.689 181.105 123.05C181.485 123.864 182.454 124.73 183.342 124.918C188.877 126.089 193.604 121.851 199.183 124.603C203.913 126.936 204.018 132.226 199.188 134.572C189.789 139.136 179.251 133.768 169.568 134.286C169.733 133.515 169.867 132.62 169.97 131.843C170.049 130.61 169.827 129.302 169.411 128.141C168.522 125.43 166.507 124.06 164.398 122.418C171.456 120.633 180.622 118.269 182.008 109.791C182.042 109.298 182.014 108.726 182.004 108.226Z" fill="#DC6135"/>
<path d="M182.008 109.791C183.993 110.009 194.962 99.7728 199.268 104.981C199.816 105.636 200.073 106.486 199.98 107.334C199.184 114.252 178.484 114.507 177.433 122.437C177.248 123.832 177.434 124.912 178.292 126.063C182.959 131.702 192.102 123.27 196.682 128.179C198.502 130.712 195.024 133.424 192.624 133.377C187.75 133.28 182.905 132.113 178.035 131.756C175.259 131.553 172.713 131.762 169.97 131.843C170.049 130.61 169.827 129.302 169.411 128.141C168.522 125.429 166.507 124.059 164.398 122.418C171.456 120.633 180.622 118.268 182.008 109.791Z" fill="#C5462E"/>
<path d="M214.855 95.3346C216.676 95.2747 218.626 95.8035 219.828 97.252C220.669 98.2658 221.057 99.5798 220.901 100.887C220.746 102.309 220.032 103.611 218.913 104.504C218.534 104.657 218.48 104.684 218.082 104.606C216.921 103.619 219.098 101.095 218.601 99.5251C218.04 97.7658 214.511 97.3147 214.211 95.9709C214.434 95.5172 214.344 95.6712 214.855 95.3346Z" fill="#F3813D"/>
<path d="M196.513 124.694C199.391 124.682 201.937 128.285 199.853 130.307C197.982 130.319 198.289 128.988 198.274 127.537C197.468 126.645 196.013 126.337 195.824 125.447C195.977 125.012 196.12 124.966 196.513 124.694Z" fill="#F3813D"/>
<path d="M110.461 133.121C109.346 133.073 107.526 132.776 106.357 132.642C104.351 132.425 102.331 132.354 100.315 132.429C98.5858 132.521 96.8716 132.794 95.2002 133.244C91.2593 134.265 88.1829 135.84 83.9508 134.091C80.31 132.609 79.3508 127.778 83.6135 126.304C86.94 125.132 95.1106 127.384 96.82 123.105C98.6877 118.429 94.3214 113.323 89.6487 112.686C84.2739 111.953 79.7377 112.152 74.5433 112.268C71.9617 112.317 69.3794 112.331 66.7973 112.309C62.969 112.266 56.2115 112.27 54.6952 107.838C54.1486 106.237 54.2731 104.483 55.0404 102.974C59.04 94.9635 76.2846 98.0513 83.1033 100.208C84.956 100.804 86.7746 101.501 88.5508 102.295C90.7102 103.248 94.6927 105.208 97.0891 104.281C98.9183 106.326 100.907 107.627 103.54 108.478L102.355 109.535C101.396 110.539 100.883 111.13 100.203 112.378C98.286 116.203 100.199 119.636 104.491 119.829C106.77 119.755 108.136 119.504 110.291 118.78C110.233 119.049 110.158 119.539 110.013 119.747C108.235 122.917 108.2 126.805 109.408 130.183C109.746 131.174 110.07 132.149 110.461 133.121Z" fill="#DC6135"/>
<path d="M100.203 112.378C98.9829 111.78 97.7652 111.142 96.4923 110.661C90.8756 108.538 84.201 107.607 78.2129 108.247C75.9102 108.493 73.3883 109.343 71.09 109.168C69.9419 109.08 68.8106 108.536 68.0696 107.647C67.5798 107.059 67.2677 106.308 67.3715 105.533C67.4794 104.728 68.0363 104.005 68.6733 103.53C72.5781 100.613 88.4748 105.138 93.1793 106.644C96.0531 107.564 99.2716 109.095 102.227 109.518L102.356 109.535C101.397 110.539 100.884 111.13 100.203 112.378Z" fill="#C5462E"/>
<path d="M104.492 119.829C106.77 119.755 108.137 119.504 110.292 118.78C110.233 119.049 110.158 119.539 110.014 119.747C108.235 122.917 108.201 126.805 109.408 130.182C107.332 130.399 105.092 130.392 102.944 130.665C100.563 130.968 96.712 129.953 99.067 126.901C99.9851 125.712 102.165 125.129 103.235 123.949C104.379 122.688 104.524 121.469 104.492 119.829Z" fill="#C5462E"/>
<path d="M60.3486 100.5C60.9934 100.495 61.0936 100.506 61.5084 100.886C61.6942 102.117 59.8423 103.353 59.74 104.819C59.6315 106.369 61.8046 107.038 61.6392 108.195C61.3215 108.553 61.1194 108.572 60.6619 108.72C56.4567 108.365 56.0748 102.26 60.3486 100.5Z" fill="#F3813D"/>
<path d="M83.5106 127.327C84.1637 127.307 84.2978 127.301 84.7587 127.652C85.0328 128.135 84.9529 129.037 84.9489 129.631C85.9974 131.376 87.5047 131.195 89.0608 132.259C89.5368 132.584 89.6783 132.806 89.5097 133.339C89.1985 133.652 89.0841 133.667 88.6566 133.802C86.7833 133.612 84.9278 133.034 83.5989 131.641C82.3385 130.319 82.0937 128.649 83.5106 127.327Z" fill="#F3813D"/>
<path d="M52.2406 35.0343C58.8472 34.4825 67.192 38.8341 71.9747 43.1113C72.1124 46.4216 71.2743 48.4238 67.4853 47.0158C66.9649 46.8225 66.5557 46.4735 66.1203 46.1352C60.7289 41.2114 52.9001 39.5737 45.9097 41.4736C45.8408 39.7286 45.8929 37.8474 45.9102 36.0915C48.0285 35.4292 50.0391 35.1676 52.2406 35.0343Z" fill="#F3813D"/>
<path d="M227.268 109.785C227.96 109.726 228.135 109.697 228.683 110.146C229.654 110.938 230.481 111.892 231.331 112.808C230.762 114.01 230.193 114.899 229.62 116.227C227.312 116.594 224.768 116.828 222.504 117.321C216.406 118.649 210.387 121.579 205.367 125.231L204.265 126.009C203.514 125.819 202.355 125.533 202.272 124.613C202.1 122.687 205.301 120.744 206.663 119.794C211.568 116.37 216.879 113.535 222.481 111.434C224.058 110.843 225.61 110.117 227.268 109.785Z" fill="#F3813D"/>
<path d="M84.4 36.4153C83.8857 36.5401 83.0715 36.547 82.614 36.3064C80.8327 35.3615 82.3025 32.6156 82.815 31.2808C84.0306 28.1142 89.6175 18.4853 92.5536 17.3004C93.4317 17.2416 95.6796 18.2058 96.3427 18.7691C96.3331 20.1374 96.4104 20.5168 96.781 21.8247C92.8548 25.1279 89.4373 27.6661 86.8927 32.2278C86.3419 33.2152 85.1354 35.8537 84.4 36.4153Z" fill="#FCB340"/>
<path d="M96.3459 18.769C96.3363 20.1373 96.4136 20.5168 96.7842 21.8246C92.8579 25.1279 89.4404 27.6661 86.8959 32.2277C86.345 33.2152 85.1386 35.8537 84.4032 36.4153C84.1138 36.4018 83.944 36.3781 83.6573 36.333C81.7446 34.0002 90.8225 22.2769 93.1261 20.7347C94.0959 20.0855 95.2898 19.3198 96.3459 18.769Z" fill="#E28F26"/>
<path d="M45.9247 126.156C51.2781 125.145 56.6481 124.254 62.123 124.541C63.662 124.621 63.9901 124.928 64.3716 126.354C64.2147 127.469 63.7578 128.24 62.5435 128.298C59.631 128.436 57.0051 128.597 54.1104 129.123C51.3164 129.637 48.5783 130.418 45.9337 131.454L45.8945 128.084L45.9247 126.156Z" fill="#F3813D"/>
<path d="M45.9247 126.156C51.2781 125.145 56.6481 124.254 62.123 124.541C63.662 124.621 63.9901 124.928 64.3716 126.354C60.6422 124.84 49.836 127.005 45.8945 128.084L45.9247 126.156Z" fill="#E28F26"/>
<path d="M172.92 139.643C177.526 140.557 184.393 145.875 187.27 149.509C187.261 150.278 187.369 151.826 186.809 152.365C186.184 152.578 185.39 152.768 184.741 152.941C183.152 151.721 180.839 149.14 178.96 147.566C177.983 146.76 176.981 145.985 175.956 145.24C174.637 144.295 172.32 143.007 171.539 141.68C171.179 140.833 172.286 140.173 172.92 139.643Z" fill="#E28F26"/>
<path d="M172.92 139.643C177.526 140.557 184.393 145.875 187.27 149.509C187.261 150.278 187.369 151.826 186.809 152.365C186.06 151.489 185.41 150.486 184.637 149.598C181.99 146.512 178.906 144.014 175.133 142.435C174.367 142.114 172.186 141.115 171.539 141.68C171.179 140.833 172.286 140.173 172.92 139.643Z" fill="#FCB340"/>
<path d="M214.813 22.4058C215.697 22.7938 215.872 23.3706 215.52 24.2888C214.532 26.8688 212.209 29.2258 209.77 30.4846C206.565 32.1146 202.847 32.4202 199.419 31.3352C198 30.6694 197.451 28.9594 199.036 28.3791C200.157 27.9684 202.616 28.2551 203.948 28.2343C204.959 28.2085 205.966 28.1067 206.961 27.9295C210.111 27.36 211.897 25.3245 213.93 23.0936C214.207 22.7892 214.447 22.5981 214.813 22.4058Z" fill="#F3813D"/>
<path d="M217 58.6779C219.827 58.5972 225.818 62.9201 227.887 64.8387C229.381 66.2231 229.345 67.4034 227.947 68.8298C225.952 69.643 225.431 68.7955 224.329 67.1665C223.089 65.1255 221.47 64.0365 219.618 62.6608C218.158 61.5758 214.697 60.5846 217 58.6779Z" fill="#F3813D"/>
<path d="M98.6816 140.542C99.1906 140.569 99.3783 140.566 99.8112 140.875C102.036 142.465 99.4929 144.078 98.1552 145.372C96.1023 147.359 94.9035 150.377 93.1543 152.458C92.6166 152.804 92.1177 152.923 91.6048 152.51C90.2396 149.665 95.996 141.907 98.6816 140.542Z" fill="#F3813D"/>
<defs>
<linearGradient id="paint0_linear_222_3404" x1="118.83" y1="109.595" x2="157.443" y2="59.4194" gradientUnits="userSpaceOnUse">
<stop stop-color="#FBAF28"/>
<stop offset="1" stop-color="#FED154"/>
</linearGradient>
<linearGradient id="paint1_linear_222_3404" x1="135.346" y1="54.089" x2="124.705" y2="29.7278" gradientUnits="userSpaceOnUse">
<stop stop-color="#BF6D11"/>
<stop offset="1" stop-color="#DC8A21"/>
</linearGradient>
<linearGradient id="paint2_linear_222_3404" x1="112.873" y1="81.2738" x2="114.196" y2="71.8795" gradientUnits="userSpaceOnUse">
<stop stop-color="#B23333"/>
<stop offset="1" stop-color="#D3494B"/>
</linearGradient>
<linearGradient id="paint3_linear_222_3404" x1="138.449" y1="114.784" x2="137.12" y2="102.256" gradientUnits="userSpaceOnUse">
<stop stop-color="#6A320A"/>
<stop offset="1" stop-color="#894811"/>
</linearGradient>
</defs>
</svg>
